<mxfile host="app.diagrams.net" agent="Mozilla/5.0 (Windows NT 10.0; Win64; x64) AppleWebKit/537.36 (KHTML, like Gecko) Chrome/130.0.0.0 Safari/537.36" version="24.8.2">
  <diagram name="Сторінка-1" id="BcvPxbbL47mcu3K_09LJ">
    <mxGraphModel grid="1" page="1" gridSize="10" guides="1" tooltips="1" connect="1" arrows="1" fold="1" pageScale="1" pageWidth="827" pageHeight="1169" math="0" shadow="0">
      <root>
        <mxCell id="0" />
        <mxCell id="1" parent="0" />
        <mxCell id="LKX_aa2e3xfpscHD8jwE-4" value="" style="edgeStyle=orthogonalEdgeStyle;rounded=0;orthogonalLoop=1;jettySize=auto;html=1;" edge="1" parent="1" source="LKX_aa2e3xfpscHD8jwE-1" target="LKX_aa2e3xfpscHD8jwE-3">
          <mxGeometry relative="1" as="geometry" />
        </mxCell>
        <mxCell id="LKX_aa2e3xfpscHD8jwE-1" value="&lt;font style=&quot;font-size: 18px;&quot;&gt;Start&lt;/font&gt;" style="ellipse;whiteSpace=wrap;html=1;" vertex="1" parent="1">
          <mxGeometry x="80" y="130" width="120" height="80" as="geometry" />
        </mxCell>
        <mxCell id="LKX_aa2e3xfpscHD8jwE-6" value="" style="edgeStyle=orthogonalEdgeStyle;rounded=0;orthogonalLoop=1;jettySize=auto;html=1;" edge="1" parent="1" source="LKX_aa2e3xfpscHD8jwE-3" target="LKX_aa2e3xfpscHD8jwE-5">
          <mxGeometry relative="1" as="geometry" />
        </mxCell>
        <mxCell id="LKX_aa2e3xfpscHD8jwE-3" value="Задання змінних&lt;div&gt;&lt;br/&gt;&lt;/div&gt;" style="rounded=0;whiteSpace=wrap;html=1;" vertex="1" parent="1">
          <mxGeometry x="80" y="240" width="120" height="60" as="geometry" />
        </mxCell>
        <mxCell id="LKX_aa2e3xfpscHD8jwE-8" value="" style="edgeStyle=orthogonalEdgeStyle;rounded=0;orthogonalLoop=1;jettySize=auto;html=1;entryX=0.5;entryY=0;entryDx=0;entryDy=0;" edge="1" parent="1" source="LKX_aa2e3xfpscHD8jwE-5" target="LKX_aa2e3xfpscHD8jwE-15">
          <mxGeometry relative="1" as="geometry">
            <mxPoint x="140.04761904761904" y="430.04761904761904" as="targetPoint" />
          </mxGeometry>
        </mxCell>
        <mxCell id="LKX_aa2e3xfpscHD8jwE-5" value="Введення свого віку" style="shape=parallelogram;perimeter=parallelogramPerimeter;whiteSpace=wrap;html=1;fixedSize=1;rounded=0;" vertex="1" parent="1">
          <mxGeometry x="70" y="350" width="140" height="50" as="geometry" />
        </mxCell>
        <mxCell id="LKX_aa2e3xfpscHD8jwE-19" value="" style="edgeStyle=orthogonalEdgeStyle;rounded=0;orthogonalLoop=1;jettySize=auto;html=1;" edge="1" parent="1" source="LKX_aa2e3xfpscHD8jwE-15" target="LKX_aa2e3xfpscHD8jwE-18">
          <mxGeometry relative="1" as="geometry" />
        </mxCell>
        <mxCell id="LKX_aa2e3xfpscHD8jwE-34" value="" style="edgeStyle=orthogonalEdgeStyle;rounded=0;orthogonalLoop=1;jettySize=auto;html=1;" edge="1" parent="1" source="LKX_aa2e3xfpscHD8jwE-15" target="LKX_aa2e3xfpscHD8jwE-33">
          <mxGeometry relative="1" as="geometry" />
        </mxCell>
        <mxCell id="LKX_aa2e3xfpscHD8jwE-15" value="&lt;br&gt;Age &amp;lt; 0" style="rhombus;whiteSpace=wrap;html=1;" vertex="1" parent="1">
          <mxGeometry x="100" y="530" width="80" height="80" as="geometry" />
        </mxCell>
        <mxCell id="LKX_aa2e3xfpscHD8jwE-18" value="Недійсний введений вік" style="shape=parallelogram;perimeter=parallelogramPerimeter;whiteSpace=wrap;html=1;fixedSize=1;" vertex="1" parent="1">
          <mxGeometry x="220" y="535" width="160" height="70" as="geometry" />
        </mxCell>
        <mxCell id="LKX_aa2e3xfpscHD8jwE-20" value="TRUE" style="text;strokeColor=none;align=center;fillColor=none;html=1;verticalAlign=middle;whiteSpace=wrap;rounded=0;" vertex="1" parent="1">
          <mxGeometry x="170" y="535" width="60" height="30" as="geometry" />
        </mxCell>
        <mxCell id="LKX_aa2e3xfpscHD8jwE-21" value="" style="endArrow=none;html=1;rounded=0;" edge="1" parent="1">
          <mxGeometry width="50" height="50" relative="1" as="geometry">
            <mxPoint x="370" y="575" as="sourcePoint" />
            <mxPoint x="440" y="575" as="targetPoint" />
          </mxGeometry>
        </mxCell>
        <mxCell id="LKX_aa2e3xfpscHD8jwE-24" value="" style="endArrow=none;html=1;rounded=0;" edge="1" parent="1">
          <mxGeometry width="50" height="50" relative="1" as="geometry">
            <mxPoint x="440" y="575" as="sourcePoint" />
            <mxPoint x="440" y="320" as="targetPoint" />
          </mxGeometry>
        </mxCell>
        <mxCell id="LKX_aa2e3xfpscHD8jwE-25" value="" style="endArrow=classic;html=1;rounded=0;" edge="1" parent="1">
          <mxGeometry width="50" height="50" relative="1" as="geometry">
            <mxPoint x="440" y="320" as="sourcePoint" />
            <mxPoint x="140" y="320" as="targetPoint" />
          </mxGeometry>
        </mxCell>
        <mxCell id="LKX_aa2e3xfpscHD8jwE-27" value="" style="endArrow=none;html=1;rounded=0;" edge="1" parent="1">
          <mxGeometry width="50" height="50" relative="1" as="geometry">
            <mxPoint x="50" y="570" as="sourcePoint" />
            <mxPoint x="100" y="570" as="targetPoint" />
          </mxGeometry>
        </mxCell>
        <mxCell id="LKX_aa2e3xfpscHD8jwE-29" value="" style="endArrow=none;html=1;rounded=0;" edge="1" parent="1">
          <mxGeometry width="50" height="50" relative="1" as="geometry">
            <mxPoint x="50" y="780" as="sourcePoint" />
            <mxPoint x="50" y="570" as="targetPoint" />
          </mxGeometry>
        </mxCell>
        <mxCell id="LKX_aa2e3xfpscHD8jwE-31" value="FALSE" style="text;strokeColor=none;align=center;fillColor=none;html=1;verticalAlign=middle;whiteSpace=wrap;rounded=0;" vertex="1" parent="1">
          <mxGeometry x="50" y="535" width="60" height="30" as="geometry" />
        </mxCell>
        <mxCell id="LKX_aa2e3xfpscHD8jwE-33" value="Введення типу поїздки" style="shape=parallelogram;perimeter=parallelogramPerimeter;whiteSpace=wrap;html=1;fixedSize=1;" vertex="1" parent="1">
          <mxGeometry x="80" y="750" width="120" height="60" as="geometry" />
        </mxCell>
        <mxCell id="LKX_aa2e3xfpscHD8jwE-35" value="" style="endArrow=classic;html=1;rounded=0;entryX=0;entryY=0.5;entryDx=0;entryDy=0;" edge="1" parent="1" target="LKX_aa2e3xfpscHD8jwE-33">
          <mxGeometry width="50" height="50" relative="1" as="geometry">
            <mxPoint x="50" y="780" as="sourcePoint" />
            <mxPoint x="100" y="730" as="targetPoint" />
          </mxGeometry>
        </mxCell>
        <mxCell id="LKX_aa2e3xfpscHD8jwE-125" value="" style="edgeStyle=orthogonalEdgeStyle;rounded=0;orthogonalLoop=1;jettySize=auto;html=1;" edge="1" parent="1" source="LKX_aa2e3xfpscHD8jwE-36" target="LKX_aa2e3xfpscHD8jwE-40">
          <mxGeometry relative="1" as="geometry" />
        </mxCell>
        <mxCell id="LKX_aa2e3xfpscHD8jwE-126" value="" style="edgeStyle=orthogonalEdgeStyle;rounded=0;orthogonalLoop=1;jettySize=auto;html=1;" edge="1" parent="1" source="LKX_aa2e3xfpscHD8jwE-36" target="LKX_aa2e3xfpscHD8jwE-56">
          <mxGeometry relative="1" as="geometry" />
        </mxCell>
        <mxCell id="LKX_aa2e3xfpscHD8jwE-36" value="&lt;div&gt;Age: 0 -11&lt;/div&gt;&lt;div&gt;Trip: One-way&lt;/div&gt;" style="rhombus;whiteSpace=wrap;html=1;" vertex="1" parent="1">
          <mxGeometry x="270" y="680" width="120" height="80" as="geometry" />
        </mxCell>
        <mxCell id="LKX_aa2e3xfpscHD8jwE-95" value="" style="edgeStyle=orthogonalEdgeStyle;rounded=0;orthogonalLoop=1;jettySize=auto;html=1;" edge="1" parent="1" source="LKX_aa2e3xfpscHD8jwE-40" target="LKX_aa2e3xfpscHD8jwE-94">
          <mxGeometry relative="1" as="geometry" />
        </mxCell>
        <mxCell id="LKX_aa2e3xfpscHD8jwE-40" value="Операція обрахунку ціни квитка зі знижкою -50%" style="rounded=0;whiteSpace=wrap;html=1;" vertex="1" parent="1">
          <mxGeometry x="270" y="810" width="120" height="60" as="geometry" />
        </mxCell>
        <mxCell id="LKX_aa2e3xfpscHD8jwE-54" value="" style="edgeStyle=orthogonalEdgeStyle;rounded=0;orthogonalLoop=1;jettySize=auto;html=1;" edge="1" parent="1" source="LKX_aa2e3xfpscHD8jwE-47" target="LKX_aa2e3xfpscHD8jwE-53">
          <mxGeometry relative="1" as="geometry" />
        </mxCell>
        <mxCell id="LKX_aa2e3xfpscHD8jwE-75" value="" style="edgeStyle=orthogonalEdgeStyle;rounded=0;orthogonalLoop=1;jettySize=auto;html=1;" edge="1" parent="1" source="LKX_aa2e3xfpscHD8jwE-47" target="LKX_aa2e3xfpscHD8jwE-51">
          <mxGeometry relative="1" as="geometry" />
        </mxCell>
        <mxCell id="LKX_aa2e3xfpscHD8jwE-47" value="&lt;div&gt;Age: 60+&lt;/div&gt;&lt;div&gt;Trip: One-way&lt;/div&gt;" style="rhombus;whiteSpace=wrap;html=1;" vertex="1" parent="1">
          <mxGeometry x="651" y="680" width="120" height="80" as="geometry" />
        </mxCell>
        <mxCell id="LKX_aa2e3xfpscHD8jwE-78" value="" style="edgeStyle=orthogonalEdgeStyle;rounded=0;orthogonalLoop=1;jettySize=auto;html=1;" edge="1" parent="1" source="LKX_aa2e3xfpscHD8jwE-51" target="LKX_aa2e3xfpscHD8jwE-77">
          <mxGeometry relative="1" as="geometry" />
        </mxCell>
        <mxCell id="LKX_aa2e3xfpscHD8jwE-80" value="" style="edgeStyle=orthogonalEdgeStyle;rounded=0;orthogonalLoop=1;jettySize=auto;html=1;" edge="1" parent="1" source="LKX_aa2e3xfpscHD8jwE-51" target="LKX_aa2e3xfpscHD8jwE-79">
          <mxGeometry relative="1" as="geometry" />
        </mxCell>
        <mxCell id="LKX_aa2e3xfpscHD8jwE-51" value="&lt;div&gt;Age: 60+&lt;/div&gt;&lt;div&gt;Trip: Round&lt;/div&gt;" style="rhombus;whiteSpace=wrap;html=1;" vertex="1" parent="1">
          <mxGeometry x="841" y="680" width="120" height="80" as="geometry" />
        </mxCell>
        <mxCell id="LKX_aa2e3xfpscHD8jwE-102" value="" style="edgeStyle=orthogonalEdgeStyle;rounded=0;orthogonalLoop=1;jettySize=auto;html=1;" edge="1" parent="1" source="LKX_aa2e3xfpscHD8jwE-53" target="LKX_aa2e3xfpscHD8jwE-101">
          <mxGeometry relative="1" as="geometry" />
        </mxCell>
        <mxCell id="LKX_aa2e3xfpscHD8jwE-53" value="Операція обрахунку ціни квитка зі знижкою -30%" style="rounded=0;whiteSpace=wrap;html=1;" vertex="1" parent="1">
          <mxGeometry x="651" y="810" width="120" height="60" as="geometry" />
        </mxCell>
        <mxCell id="LKX_aa2e3xfpscHD8jwE-60" value="" style="edgeStyle=orthogonalEdgeStyle;rounded=0;orthogonalLoop=1;jettySize=auto;html=1;" edge="1" parent="1" source="LKX_aa2e3xfpscHD8jwE-56" target="LKX_aa2e3xfpscHD8jwE-59">
          <mxGeometry relative="1" as="geometry" />
        </mxCell>
        <mxCell id="LKX_aa2e3xfpscHD8jwE-128" value="" style="edgeStyle=orthogonalEdgeStyle;rounded=0;orthogonalLoop=1;jettySize=auto;html=1;" edge="1" parent="1" source="LKX_aa2e3xfpscHD8jwE-56" target="LKX_aa2e3xfpscHD8jwE-47">
          <mxGeometry relative="1" as="geometry" />
        </mxCell>
        <mxCell id="LKX_aa2e3xfpscHD8jwE-56" value="&lt;div&gt;Age: 0 -11&lt;/div&gt;&lt;div&gt;Trip: Round&lt;/div&gt;" style="rhombus;whiteSpace=wrap;html=1;" vertex="1" parent="1">
          <mxGeometry x="480" y="680" width="120" height="80" as="geometry" />
        </mxCell>
        <mxCell id="LKX_aa2e3xfpscHD8jwE-98" value="" style="edgeStyle=orthogonalEdgeStyle;rounded=0;orthogonalLoop=1;jettySize=auto;html=1;" edge="1" parent="1" source="LKX_aa2e3xfpscHD8jwE-59" target="LKX_aa2e3xfpscHD8jwE-96">
          <mxGeometry relative="1" as="geometry" />
        </mxCell>
        <mxCell id="LKX_aa2e3xfpscHD8jwE-59" value="Операція обрахунку ціни квитка зі знижкою - 10%&lt;div&gt;і + знижка -50%&lt;br&gt;&lt;br&gt;&lt;/div&gt;" style="whiteSpace=wrap;html=1;" vertex="1" parent="1">
          <mxGeometry x="480" y="810" width="120" height="70" as="geometry" />
        </mxCell>
        <mxCell id="LKX_aa2e3xfpscHD8jwE-72" value="&lt;span style=&quot;color: rgb(0, 0, 0); font-family: Helvetica; font-size: 12px; font-style: normal; font-variant-ligatures: normal; font-variant-caps: normal; font-weight: 400; letter-spacing: normal; orphans: 2; text-align: center; text-indent: 0px; text-transform: none; widows: 2; word-spacing: 0px; -webkit-text-stroke-width: 0px; white-space: normal; background-color: rgb(251, 251, 251); text-decoration-thickness: initial; text-decoration-style: initial; text-decoration-color: initial; display: inline !important; float: none;&quot;&gt;TRUE&lt;/span&gt;" style="text;whiteSpace=wrap;html=1;" vertex="1" parent="1">
          <mxGeometry x="721" y="770" width="70" height="30" as="geometry" />
        </mxCell>
        <mxCell id="LKX_aa2e3xfpscHD8jwE-76" value="FALSE" style="text;strokeColor=none;align=center;fillColor=none;html=1;verticalAlign=middle;whiteSpace=wrap;rounded=0;" vertex="1" parent="1">
          <mxGeometry x="765" y="680" width="60" height="30" as="geometry" />
        </mxCell>
        <mxCell id="LKX_aa2e3xfpscHD8jwE-104" value="" style="edgeStyle=orthogonalEdgeStyle;rounded=0;orthogonalLoop=1;jettySize=auto;html=1;" edge="1" parent="1" source="LKX_aa2e3xfpscHD8jwE-77" target="LKX_aa2e3xfpscHD8jwE-103">
          <mxGeometry relative="1" as="geometry" />
        </mxCell>
        <mxCell id="LKX_aa2e3xfpscHD8jwE-77" value="&lt;br&gt;&lt;span style=&quot;color: rgb(0, 0, 0); font-family: Helvetica; font-size: 12px; font-style: normal; font-variant-ligatures: normal; font-variant-caps: normal; font-weight: 400; letter-spacing: normal; orphans: 2; text-align: center; text-indent: 0px; text-transform: none; widows: 2; word-spacing: 0px; -webkit-text-stroke-width: 0px; white-space: normal; background-color: rgb(251, 251, 251); text-decoration-thickness: initial; text-decoration-style: initial; text-decoration-color: initial; display: inline !important; float: none;&quot;&gt;Операція обрахунку ціни квитка зі знижкою -10%&lt;/span&gt;&lt;div&gt;&lt;span style=&quot;color: rgb(0, 0, 0); font-family: Helvetica; font-size: 12px; font-style: normal; font-variant-ligatures: normal; font-variant-caps: normal; font-weight: 400; letter-spacing: normal; orphans: 2; text-align: center; text-indent: 0px; text-transform: none; widows: 2; word-spacing: 0px; -webkit-text-stroke-width: 0px; white-space: normal; background-color: rgb(251, 251, 251); text-decoration-thickness: initial; text-decoration-style: initial; text-decoration-color: initial; display: inline !important; float: none;&quot;&gt;і + знижка&amp;nbsp; -30%&lt;br&gt;&lt;/span&gt;&lt;div&gt;&lt;br&gt;&lt;/div&gt;&lt;/div&gt;" style="whiteSpace=wrap;html=1;" vertex="1" parent="1">
          <mxGeometry x="841" y="810" width="120" height="60" as="geometry" />
        </mxCell>
        <mxCell id="LKX_aa2e3xfpscHD8jwE-83" value="" style="edgeStyle=orthogonalEdgeStyle;rounded=0;orthogonalLoop=1;jettySize=auto;html=1;" edge="1" parent="1" source="LKX_aa2e3xfpscHD8jwE-79" target="LKX_aa2e3xfpscHD8jwE-82">
          <mxGeometry relative="1" as="geometry" />
        </mxCell>
        <mxCell id="LKX_aa2e3xfpscHD8jwE-85" value="" style="edgeStyle=orthogonalEdgeStyle;rounded=0;orthogonalLoop=1;jettySize=auto;html=1;" edge="1" parent="1" source="LKX_aa2e3xfpscHD8jwE-79" target="LKX_aa2e3xfpscHD8jwE-84">
          <mxGeometry relative="1" as="geometry" />
        </mxCell>
        <mxCell id="LKX_aa2e3xfpscHD8jwE-79" value="&lt;div&gt;Age: 12-60&lt;/div&gt;&lt;div&gt;Trip: One-way&lt;/div&gt;" style="rhombus;whiteSpace=wrap;html=1;" vertex="1" parent="1">
          <mxGeometry x="1041" y="680" width="120" height="80" as="geometry" />
        </mxCell>
        <mxCell id="LKX_aa2e3xfpscHD8jwE-81" value="FALSE" style="text;strokeColor=none;align=center;fillColor=none;html=1;verticalAlign=middle;whiteSpace=wrap;rounded=0;" vertex="1" parent="1">
          <mxGeometry x="971" y="680" width="60" height="30" as="geometry" />
        </mxCell>
        <mxCell id="LKX_aa2e3xfpscHD8jwE-106" value="" style="edgeStyle=orthogonalEdgeStyle;rounded=0;orthogonalLoop=1;jettySize=auto;html=1;" edge="1" parent="1" source="LKX_aa2e3xfpscHD8jwE-82" target="LKX_aa2e3xfpscHD8jwE-105">
          <mxGeometry relative="1" as="geometry" />
        </mxCell>
        <mxCell id="LKX_aa2e3xfpscHD8jwE-82" value="Стандартна ціна квитка без знижок" style="whiteSpace=wrap;html=1;" vertex="1" parent="1">
          <mxGeometry x="1041" y="810" width="120" height="60" as="geometry" />
        </mxCell>
        <mxCell id="LKX_aa2e3xfpscHD8jwE-87" value="" style="edgeStyle=orthogonalEdgeStyle;rounded=0;orthogonalLoop=1;jettySize=auto;html=1;" edge="1" parent="1" source="LKX_aa2e3xfpscHD8jwE-84" target="LKX_aa2e3xfpscHD8jwE-86">
          <mxGeometry relative="1" as="geometry" />
        </mxCell>
        <mxCell id="LKX_aa2e3xfpscHD8jwE-84" value="&lt;div&gt;Age: 12-60&lt;/div&gt;&lt;div&gt;Trip: Round&lt;/div&gt;" style="rhombus;whiteSpace=wrap;html=1;" vertex="1" parent="1">
          <mxGeometry x="1241" y="680" width="120" height="80" as="geometry" />
        </mxCell>
        <mxCell id="LKX_aa2e3xfpscHD8jwE-108" value="" style="edgeStyle=orthogonalEdgeStyle;rounded=0;orthogonalLoop=1;jettySize=auto;html=1;" edge="1" parent="1" source="LKX_aa2e3xfpscHD8jwE-86" target="LKX_aa2e3xfpscHD8jwE-107">
          <mxGeometry relative="1" as="geometry" />
        </mxCell>
        <mxCell id="LKX_aa2e3xfpscHD8jwE-86" value="Стандартна ціна квитка зі знижкою -10%" style="whiteSpace=wrap;html=1;" vertex="1" parent="1">
          <mxGeometry x="1241" y="810" width="120" height="60" as="geometry" />
        </mxCell>
        <mxCell id="LKX_aa2e3xfpscHD8jwE-88" value="FALSE" style="text;strokeColor=none;align=center;fillColor=none;html=1;verticalAlign=middle;whiteSpace=wrap;rounded=0;" vertex="1" parent="1">
          <mxGeometry x="1171" y="680" width="60" height="30" as="geometry" />
        </mxCell>
        <mxCell id="LKX_aa2e3xfpscHD8jwE-89" value="&lt;span style=&quot;color: rgb(0, 0, 0); font-family: Helvetica; font-size: 12px; font-style: normal; font-variant-ligatures: normal; font-variant-caps: normal; font-weight: 400; letter-spacing: normal; orphans: 2; text-align: center; text-indent: 0px; text-transform: none; widows: 2; word-spacing: 0px; -webkit-text-stroke-width: 0px; white-space: normal; background-color: rgb(251, 251, 251); text-decoration-thickness: initial; text-decoration-style: initial; text-decoration-color: initial; display: inline !important; float: none;&quot;&gt;TRUE&lt;/span&gt;" style="text;whiteSpace=wrap;html=1;" vertex="1" parent="1">
          <mxGeometry x="910" y="770" width="70" height="30" as="geometry" />
        </mxCell>
        <mxCell id="LKX_aa2e3xfpscHD8jwE-90" value="&lt;span style=&quot;color: rgb(0, 0, 0); font-family: Helvetica; font-size: 12px; font-style: normal; font-variant-ligatures: normal; font-variant-caps: normal; font-weight: 400; letter-spacing: normal; orphans: 2; text-align: center; text-indent: 0px; text-transform: none; widows: 2; word-spacing: 0px; -webkit-text-stroke-width: 0px; white-space: normal; background-color: rgb(251, 251, 251); text-decoration-thickness: initial; text-decoration-style: initial; text-decoration-color: initial; display: inline !important; float: none;&quot;&gt;TRUE&lt;/span&gt;" style="text;whiteSpace=wrap;html=1;" vertex="1" parent="1">
          <mxGeometry x="1120" y="770" width="70" height="30" as="geometry" />
        </mxCell>
        <mxCell id="LKX_aa2e3xfpscHD8jwE-91" value="&lt;span style=&quot;color: rgb(0, 0, 0); font-family: Helvetica; font-size: 12px; font-style: normal; font-variant-ligatures: normal; font-variant-caps: normal; font-weight: 400; letter-spacing: normal; orphans: 2; text-align: center; text-indent: 0px; text-transform: none; widows: 2; word-spacing: 0px; -webkit-text-stroke-width: 0px; white-space: normal; background-color: rgb(251, 251, 251); text-decoration-thickness: initial; text-decoration-style: initial; text-decoration-color: initial; display: inline !important; float: none;&quot;&gt;TRUE&lt;/span&gt;" style="text;whiteSpace=wrap;html=1;" vertex="1" parent="1">
          <mxGeometry x="1310" y="770" width="70" height="30" as="geometry" />
        </mxCell>
        <mxCell id="LKX_aa2e3xfpscHD8jwE-94" value="Виведення ціни" style="shape=parallelogram;perimeter=parallelogramPerimeter;whiteSpace=wrap;html=1;fixedSize=1;rounded=0;" vertex="1" parent="1">
          <mxGeometry x="270" y="915" width="120" height="60" as="geometry" />
        </mxCell>
        <mxCell id="LKX_aa2e3xfpscHD8jwE-96" value="Виведення ціни" style="shape=parallelogram;perimeter=parallelogramPerimeter;whiteSpace=wrap;html=1;fixedSize=1;rounded=0;" vertex="1" parent="1">
          <mxGeometry x="480" y="919" width="120" height="60" as="geometry" />
        </mxCell>
        <mxCell id="LKX_aa2e3xfpscHD8jwE-101" value="Виведення ціни" style="shape=parallelogram;perimeter=parallelogramPerimeter;whiteSpace=wrap;html=1;fixedSize=1;rounded=0;" vertex="1" parent="1">
          <mxGeometry x="651" y="919" width="120" height="60" as="geometry" />
        </mxCell>
        <mxCell id="LKX_aa2e3xfpscHD8jwE-103" value="Виведення ціни" style="shape=parallelogram;perimeter=parallelogramPerimeter;whiteSpace=wrap;html=1;fixedSize=1;rounded=0;" vertex="1" parent="1">
          <mxGeometry x="841" y="919" width="120" height="60" as="geometry" />
        </mxCell>
        <mxCell id="LKX_aa2e3xfpscHD8jwE-105" value="Виведення ціни" style="shape=parallelogram;perimeter=parallelogramPerimeter;whiteSpace=wrap;html=1;fixedSize=1;rounded=0;" vertex="1" parent="1">
          <mxGeometry x="1041" y="919" width="120" height="60" as="geometry" />
        </mxCell>
        <mxCell id="LKX_aa2e3xfpscHD8jwE-107" value="Виведення ціни" style="shape=parallelogram;perimeter=parallelogramPerimeter;whiteSpace=wrap;html=1;fixedSize=1;rounded=0;" vertex="1" parent="1">
          <mxGeometry x="1241" y="920" width="120" height="60" as="geometry" />
        </mxCell>
        <mxCell id="LKX_aa2e3xfpscHD8jwE-127" value="FALSE" style="text;strokeColor=none;align=center;fillColor=none;html=1;verticalAlign=middle;whiteSpace=wrap;rounded=0;" vertex="1" parent="1">
          <mxGeometry x="410" y="680" width="60" height="30" as="geometry" />
        </mxCell>
        <mxCell id="LKX_aa2e3xfpscHD8jwE-129" value="FALSE" style="text;strokeColor=none;align=center;fillColor=none;html=1;verticalAlign=middle;whiteSpace=wrap;rounded=0;" vertex="1" parent="1">
          <mxGeometry x="591" y="680" width="60" height="30" as="geometry" />
        </mxCell>
        <mxCell id="LKX_aa2e3xfpscHD8jwE-130" value="&lt;span style=&quot;color: rgb(0, 0, 0); font-family: Helvetica; font-size: 12px; font-style: normal; font-variant-ligatures: normal; font-variant-caps: normal; font-weight: 400; letter-spacing: normal; orphans: 2; text-align: center; text-indent: 0px; text-transform: none; widows: 2; word-spacing: 0px; -webkit-text-stroke-width: 0px; white-space: normal; background-color: rgb(251, 251, 251); text-decoration-thickness: initial; text-decoration-style: initial; text-decoration-color: initial; display: inline !important; float: none;&quot;&gt;TRUE&lt;/span&gt;" style="text;whiteSpace=wrap;html=1;" vertex="1" parent="1">
          <mxGeometry x="340" y="770" width="70" height="30" as="geometry" />
        </mxCell>
        <mxCell id="LKX_aa2e3xfpscHD8jwE-131" value="&lt;span style=&quot;color: rgb(0, 0, 0); font-family: Helvetica; font-size: 12px; font-style: normal; font-variant-ligatures: normal; font-variant-caps: normal; font-weight: 400; letter-spacing: normal; orphans: 2; text-align: center; text-indent: 0px; text-transform: none; widows: 2; word-spacing: 0px; -webkit-text-stroke-width: 0px; white-space: normal; background-color: rgb(251, 251, 251); text-decoration-thickness: initial; text-decoration-style: initial; text-decoration-color: initial; display: inline !important; float: none;&quot;&gt;TRUE&lt;/span&gt;" style="text;whiteSpace=wrap;html=1;" vertex="1" parent="1">
          <mxGeometry x="550" y="770" width="70" height="30" as="geometry" />
        </mxCell>
        <mxCell id="LKX_aa2e3xfpscHD8jwE-132" value="" style="endArrow=none;html=1;rounded=0;" edge="1" parent="1">
          <mxGeometry width="50" height="50" relative="1" as="geometry">
            <mxPoint x="330" y="1020" as="sourcePoint" />
            <mxPoint x="330" y="975" as="targetPoint" />
          </mxGeometry>
        </mxCell>
        <mxCell id="LKX_aa2e3xfpscHD8jwE-133" value="" style="endArrow=none;html=1;rounded=0;" edge="1" parent="1">
          <mxGeometry width="50" height="50" relative="1" as="geometry">
            <mxPoint x="533" y="1020" as="sourcePoint" />
            <mxPoint x="533" y="979" as="targetPoint" />
          </mxGeometry>
        </mxCell>
        <mxCell id="LKX_aa2e3xfpscHD8jwE-134" value="" style="endArrow=none;html=1;rounded=0;" edge="1" parent="1">
          <mxGeometry width="50" height="50" relative="1" as="geometry">
            <mxPoint x="700" y="1020" as="sourcePoint" />
            <mxPoint x="700" y="979" as="targetPoint" />
          </mxGeometry>
        </mxCell>
        <mxCell id="LKX_aa2e3xfpscHD8jwE-135" value="" style="endArrow=none;html=1;rounded=0;" edge="1" parent="1">
          <mxGeometry width="50" height="50" relative="1" as="geometry">
            <mxPoint x="890" y="1020" as="sourcePoint" />
            <mxPoint x="890" y="979" as="targetPoint" />
          </mxGeometry>
        </mxCell>
        <mxCell id="LKX_aa2e3xfpscHD8jwE-136" value="" style="endArrow=none;html=1;rounded=0;" edge="1" parent="1">
          <mxGeometry width="50" height="50" relative="1" as="geometry">
            <mxPoint x="1101" y="1020" as="sourcePoint" />
            <mxPoint x="1100.87" y="979" as="targetPoint" />
          </mxGeometry>
        </mxCell>
        <mxCell id="LKX_aa2e3xfpscHD8jwE-137" value="" style="endArrow=none;html=1;rounded=0;" edge="1" parent="1">
          <mxGeometry width="50" height="50" relative="1" as="geometry">
            <mxPoint x="330" y="1020" as="sourcePoint" />
            <mxPoint x="1290" y="1020" as="targetPoint" />
          </mxGeometry>
        </mxCell>
        <mxCell id="LKX_aa2e3xfpscHD8jwE-138" value="" style="endArrow=none;html=1;rounded=0;" edge="1" parent="1">
          <mxGeometry width="50" height="50" relative="1" as="geometry">
            <mxPoint x="1290" y="1020" as="sourcePoint" />
            <mxPoint x="1290.89" y="980" as="targetPoint" />
          </mxGeometry>
        </mxCell>
        <mxCell id="LKX_aa2e3xfpscHD8jwE-140" value="&lt;font style=&quot;font-size: 18px;&quot;&gt;End&lt;/font&gt;" style="ellipse;whiteSpace=wrap;html=1;" vertex="1" parent="1">
          <mxGeometry x="740" y="1070" width="120" height="80" as="geometry" />
        </mxCell>
        <mxCell id="LKX_aa2e3xfpscHD8jwE-141" value="" style="endArrow=classic;html=1;rounded=0;entryX=0.5;entryY=0;entryDx=0;entryDy=0;" edge="1" parent="1" target="LKX_aa2e3xfpscHD8jwE-140">
          <mxGeometry width="50" height="50" relative="1" as="geometry">
            <mxPoint x="800" y="1020" as="sourcePoint" />
            <mxPoint x="880" y="1010" as="targetPoint" />
          </mxGeometry>
        </mxCell>
        <mxCell id="LKX_aa2e3xfpscHD8jwE-142" value="" style="endArrow=none;html=1;rounded=0;" edge="1" parent="1">
          <mxGeometry width="50" height="50" relative="1" as="geometry">
            <mxPoint x="190" y="780" as="sourcePoint" />
            <mxPoint x="250" y="780" as="targetPoint" />
          </mxGeometry>
        </mxCell>
        <mxCell id="LKX_aa2e3xfpscHD8jwE-143" value="" style="endArrow=none;html=1;rounded=0;" edge="1" parent="1">
          <mxGeometry width="50" height="50" relative="1" as="geometry">
            <mxPoint x="250" y="780" as="sourcePoint" />
            <mxPoint x="250" y="720" as="targetPoint" />
          </mxGeometry>
        </mxCell>
        <mxCell id="LKX_aa2e3xfpscHD8jwE-144" value="" style="endArrow=classic;html=1;rounded=0;entryX=0;entryY=0.5;entryDx=0;entryDy=0;" edge="1" parent="1" target="LKX_aa2e3xfpscHD8jwE-36">
          <mxGeometry width="50" height="50" relative="1" as="geometry">
            <mxPoint x="250" y="720" as="sourcePoint" />
            <mxPoint x="300" y="670" as="targetPoint" />
          </mxGeometry>
        </mxCell>
      </root>
    </mxGraphModel>
  </diagram>
</mxfile>
